<?xml version="1.0" standalone="no"?>
<!DOCTYPE svg PUBLIC "-//W3C//DTD SVG 20010904//EN"
 "http://www.w3.org/TR/2001/REC-SVG-20010904/DTD/svg10.dtd">
<svg version="1.0" xmlns="http://www.w3.org/2000/svg"
 width="64.000000pt" height="64.000000pt" viewBox="0 0 64.000000 64.000000"
 preserveAspectRatio="xMidYMid meet">

<g transform="translate(0.000000,64.000000) scale(0.100000,-0.100000)"
fill="#000000" stroke="none">
<path d="M251 630 c-90 -19 -183 -97 -224 -189 -28 -64 -28 -178 0 -242 95
-214 371 -261 526 -90 46 51 62 83 77 154 36 177 -96 353 -280 370 -30 3 -75
2 -99 -3z m159 -155 c0 -33 -2 -35 -35 -35 -32 0 -35 -2 -35 -30 0 -27 3 -30
33 -30 32 0 33 -2 29 -30 -4 -25 -9 -30 -33 -30 l-28 0 -3 -92 -3 -93 -32 -3
-33 -3 0 95 c0 89 -1 96 -20 96 -16 0 -20 7 -20 30 0 23 4 30 20 30 17 0 20 7
20 40 0 58 34 90 95 90 45 0 45 0 45 -35z"/>
</g>
</svg>
