<?xml version="1.0" standalone="no"?>
<!DOCTYPE svg PUBLIC "-//W3C//DTD SVG 20010904//EN"
 "http://www.w3.org/TR/2001/REC-SVG-20010904/DTD/svg10.dtd">
<svg version="1.0" xmlns="http://www.w3.org/2000/svg"
 width="64.000000pt" height="64.000000pt" viewBox="0 0 64.000000 64.000000"
 preserveAspectRatio="xMidYMid meet">

<g transform="translate(0.000000,64.000000) scale(0.100000,-0.100000)"
fill="#000000" stroke="none">
<path d="M223 622 c-28 -10 -68 -29 -87 -43 -35 -23 -96 -98 -96 -116 0 -5 13
-22 30 -38 l30 -29 0 25 c0 37 37 89 75 105 23 9 72 14 147 14 189 0 218 -29
218 -218 0 -75 -5 -124 -14 -147 -16 -38 -68 -75 -106 -75 l-25 0 32 -32 c30
-30 34 -31 58 -18 46 25 97 82 124 139 54 115 27 265 -64 356 -82 81 -219 114
-322 77z"/>
<path d="M205 493 c-42 -11 -55 -33 -55 -93 0 -48 4 -60 28 -83 l27 -26 2 37
c3 53 57 102 114 102 88 0 141 -106 87 -175 -25 -32 -80 -57 -105 -48 -12 4
-9 -4 11 -25 27 -29 36 -32 86 -32 88 0 95 12 95 171 0 120 -1 130 -23 151
-20 21 -33 23 -135 25 -61 1 -121 -1 -132 -4z m255 -53 c0 -24 -26 -38 -42
-22 -16 16 -2 42 22 42 13 0 20 -7 20 -20z"/>
<path d="M270 370 c-27 -27 -25 -66 5 -95 45 -46 115 -19 115 45 0 17 -9 39
-20 50 -11 11 -33 20 -50 20 -17 0 -39 -9 -50 -20z"/>
</g>
</svg>
