<?xml version="1.0" standalone="no"?>
<!DOCTYPE svg PUBLIC "-//W3C//DTD SVG 20010904//EN"
 "http://www.w3.org/TR/2001/REC-SVG-20010904/DTD/svg10.dtd">
<svg version="1.0" xmlns="http://www.w3.org/2000/svg"
 width="64.000000pt" height="64.000000pt" viewBox="0 0 64.000000 64.000000"
 preserveAspectRatio="xMidYMid meet">

<g transform="translate(0.000000,64.000000) scale(0.100000,-0.100000)"
fill="#000000" stroke="none">
<path d="M224 592 c-199 -69 -258 -326 -108 -476 59 -58 115 -81 204 -81 164
0 278 110 286 274 l3 66 -8 -60 c-9 -70 -28 -110 -72 -154 -104 -105 -266
-105 -369 -1 -105 104 -104 265 2 369 46 46 84 63 153 71 l60 7 -50 1 c-27 1
-73 -7 -101 -16z"/>
</g>
</svg>
